<svg width="588" height="588" viewBox="0 0 588 588" fill="none" xmlns="http://www.w3.org/2000/svg">
<g clip-path="url(#clip0_299_812)">
<path fill-rule="evenodd" clip-rule="evenodd" d="M294.012 588C338.851 588 381.291 577.98 419.38 560.082L168.69 560.082C206.733 577.98 249.173 588 294.012 588ZM388.053 532.022L466.63 532.022C478.378 523.567 489.408 514.17 499.709 504.045L427.624 504.045C415.547 514.723 402.305 524.131 388.053 532.022ZM237.554 448.032L43.5573 448.032C49.5194 457.71 56.093 467.083 63.1134 476.033L237.554 476.033L237.554 448.032ZM454.424 476.033L524.887 476.033C531.942 467.083 538.528 457.71 544.525 448.032L473.545 448.032C467.876 457.828 461.467 467.248 454.424 476.033ZM237.554 504.045L88.2788 504.045C98.6272 514.17 109.705 523.567 121.417 532.022L237.554 532.022L237.554 504.045ZM2.57014e-05 294.011C2.52973e-05 298.632 0.141116 303.36 0.376306 307.993L101.802 307.993C105.789 317.684 110.363 327.033 115.549 336.006L3.05752 336.006C4.40986 345.484 6.23259 354.857 8.44338 364.018L134.776 364.018C142.878 374.144 151.874 383.457 161.635 391.995L16.7456 391.995C20.1205 401.615 24.0483 410.952 28.317 419.996L350.763 419.996L350.763 279.969L237.554 279.969L237.554 139.942L544.525 139.942C538.528 130.252 531.942 120.891 524.887 112.024L350.904 112.024L350.904 83.9879L499.721 83.9879C489.396 73.8507 478.307 64.4662 466.583 56.0696L350.904 56.0696L350.904 27.9983L419.38 27.9983C381.291 9.98188 338.851 -0.00240215 294.012 -0.00240607C249.173 -0.00240999 206.733 9.98187 168.691 27.9983L200.324 27.9983C186.177 35.9128 173.006 45.2973 160.917 56.0695L121.417 56.0695C109.716 64.4662 98.6272 73.8507 88.2906 83.9879L134.294 83.9879C127.285 92.7961 120.923 102.157 115.196 112.024L63.1722 112.024C56.093 120.891 49.5312 130.252 43.5574 139.942L101.602 139.942C97.9569 149.08 94.8406 158.394 92.4064 167.966L28.317 167.966C24.0483 177.127 20.1206 186.418 16.7456 196.026L87.1029 196.026C86.021 205.116 85.4095 214.324 85.4095 223.721L85.4095 224.003L8.44339 224.003C6.2326 233.176 4.40987 242.502 3.05752 251.98L87.1852 251.98C88.4317 261.541 90.1956 270.867 92.5475 279.969L0.376309 279.969C0.141117 284.661 2.61095e-05 289.342 2.57014e-05 294.011ZM454.424 196.026L571.243 196.026C567.832 186.418 564.022 177.127 559.73 167.966L427.624 167.966C437.325 176.575 446.298 185.948 454.424 196.026ZM487.221 251.98L584.966 251.98C583.649 242.502 581.885 233.176 579.615 224.003L473.521 224.003C478.73 233.011 483.352 242.36 487.221 251.98ZM503.496 336.006C503.496 345.484 502.885 354.857 501.767 364.018L579.615 364.018C581.885 354.857 583.649 345.484 584.966 336.006L503.496 336.006ZM487.233 419.996L559.73 419.996C564.022 410.952 567.832 401.615 571.243 391.995L496.417 391.995C494.006 401.615 490.878 410.952 487.233 419.996ZM501.767 307.993L587.683 307.993C587.871 303.372 588 298.632 588 294.011C588 289.342 587.871 284.673 587.683 279.981L496.417 279.981C498.828 289.107 500.615 298.479 501.767 307.993Z" fill="white"/>
</g>
<defs>
<clipPath id="clip0_299_812">
<rect width="588" height="588" fill="white"/>
</clipPath>
</defs>
</svg>
