<svg width="346" height="80" viewBox="0 0 346 80" fill="none" xmlns="http://www.w3.org/2000/svg">
<path d="M103.336 40.94V56.204H107.584V44.36H122.488V56.204H126.952V40.94H103.336ZM105.892 46.34V49.472H124V46.34H105.892ZM102.76 25.136V28.484H114.172V25.136H102.76ZM98.476 30.86V34.244H115.036V30.86H98.476ZM105.892 51.596V55.016H124V51.596H105.892ZM105.424 26.144V30.068C105.424 32.696 104.812 36.62 98.044 39.212C99.016 39.896 100.24 41.228 100.816 42.092C108.124 38.744 109.492 33.776 109.492 30.104V26.144H105.424ZM102.112 22.22C101.428 24.884 100.024 27.548 98.188 29.276C99.124 29.708 100.78 30.68 101.572 31.292C103.408 29.312 105.064 26.216 105.964 22.976L102.112 22.22ZM108.808 34.064L105.892 35.828C107.512 36.872 110.68 39.212 112.084 40.4L115.18 37.664C114.136 36.98 110.104 34.676 108.808 34.064ZM120.256 28.88H125.764V34.964H120.256V28.88ZM116.26 25.064V38.816H130.012V25.064H116.26ZM143.476 47.24V51.164C143.476 54.728 144.556 55.88 149.236 55.88C150.172 55.88 154.06 55.88 155.032 55.88C158.416 55.88 159.604 54.872 160.108 50.876C158.992 50.624 157.192 50.048 156.364 49.436C156.184 51.848 155.932 52.172 154.636 52.172C153.664 52.172 150.46 52.172 149.74 52.172C148.048 52.172 147.76 52.064 147.76 51.092V47.24H143.476ZM147.472 46.88C149.308 47.924 151.396 49.544 152.368 50.768L155.284 48.212C154.24 46.988 152.044 45.476 150.244 44.54L147.472 46.88ZM158.56 48.86C160.864 50.804 163.24 53.54 164.176 55.484L167.92 53.36C166.84 51.308 164.32 48.716 162.016 46.916L158.56 48.86ZM138.616 47.24C137.788 49.58 136.204 51.884 134.044 53.252L137.5 55.7C139.948 53.972 141.388 51.308 142.324 48.608L138.616 47.24ZM137.896 35.72V38.42H159.64V43.496H137.68V46.196H163.888V35.72H137.896ZM139.156 39.644V42.164H161.044V39.644H139.156ZM135.628 23.948V26.468H149.848V23.948H135.628ZM136.456 27.584V30.104H149.416V27.584H136.456ZM140.884 22.472V35.216H144.88V22.472H140.884ZM151.216 23.948V26.468H166.012V23.948H151.216ZM150.928 31.292V33.812H166.696V31.292H150.928ZM151.972 27.584V30.104H165.4V27.584H151.972ZM156.328 22.472V35.216H160.36V22.472H156.328ZM135.124 31.58L135.232 34.388C139.156 34.208 144.664 33.956 149.992 33.632L150.028 31.04C144.52 31.256 138.904 31.472 135.124 31.58ZM173.968 29.24V32.3H183.004V29.24H173.968ZM190.6 29.24V32.3H199.672V29.24H190.6ZM197.98 23.876V50.948C197.98 51.668 197.728 51.884 196.972 51.884C196.216 51.92 193.516 51.956 191.248 51.776C191.86 52.964 192.58 55.016 192.796 56.24C196.288 56.24 198.664 56.132 200.248 55.412C201.832 54.728 202.336 53.504 202.336 50.984V23.876H197.98ZM174.328 23.876V27.368H181.6V34.388H174.328V37.844H185.668V23.876H174.328ZM200.32 23.876H188.152V37.916H200.32V34.46H192.256V27.368H200.32V23.876ZM171.844 23.876V56.24H176.128V23.876H171.844ZM220.552 22.292V29.6H225.196V22.292H220.552ZM220.624 30.932V56.312H225.124V30.932H220.624ZM206.512 27.008V31.22H239.56V27.008H206.512ZM209.932 35V51.92H214.288V39.212H233.656V35H209.932ZM232.036 35V47.132C232.036 47.6 231.856 47.744 231.244 47.744C230.704 47.744 228.544 47.744 226.744 47.672C227.356 48.824 228.004 50.66 228.184 51.92C230.992 51.92 233.08 51.848 234.592 51.2C236.104 50.516 236.536 49.292 236.536 47.204V35H232.036ZM244.564 24.668V28.952H273.328V24.668H244.564ZM242.62 39.932V44.288H275.416V39.932H242.62ZM246.724 31.256C247.876 33.668 249.028 36.836 249.388 38.78L253.564 37.448C253.168 35.468 251.908 32.408 250.648 30.104L246.724 31.256ZM267.244 29.996C266.56 32.372 265.228 35.54 264.112 37.628L267.892 38.744C269.08 36.872 270.556 33.92 271.852 31.184L267.244 29.996ZM256.696 26.468V56.204H261.196V26.468H256.696ZM284.884 50.588V54.764H304.756V50.588H284.884ZM282.94 40.256V56.204H287.368V44.396H302.38V56.204H307.024V40.256H282.94ZM289.996 22.148C288.448 26.18 285.604 31.364 283.192 34.64L287.08 36.188C289.528 33.056 292.588 28.232 294.928 23.768L289.996 22.148ZM298.636 28.592C302.236 31.688 306.34 36.08 308.032 39.104L311.812 36.224C309.94 33.128 305.62 28.952 302.056 26.072L298.636 28.592ZM279.124 32.624L279.376 37.016C286.468 36.728 297.268 36.296 307.24 35.756L307.456 31.58C297.556 32.012 286.396 32.444 279.124 32.624Z" fill="white"/>
<g clip-path="url(#clip0_171_569)">
<path fill-rule="evenodd" clip-rule="evenodd" d="M57.001 64C60.6613 64 64.1258 63.1821 67.2351 61.7209L46.7707 61.7209C49.8761 63.1821 53.3406 64 57.001 64ZM64.6778 59.4304L71.0922 59.4304C72.0512 58.7401 72.9517 57.9731 73.7926 57.1465L67.908 57.1465C66.9222 58.0182 65.8413 58.7862 64.6778 59.4304ZM52.3922 52.574L36.5557 52.574C37.0424 53.3641 37.579 54.1292 38.1521 54.8598L52.3922 54.8598L52.3922 52.574ZM70.0958 54.8598L75.8479 54.8598C76.4239 54.1292 76.9614 53.3641 77.451 52.574L71.6567 52.574C71.194 53.3737 70.6708 54.1427 70.0958 54.8598ZM52.3922 57.1465L40.2064 57.1465C41.0512 57.9731 41.9555 58.7401 42.9116 59.4304L52.3922 59.4304L52.3922 57.1465ZM33 40.0009C33 40.3781 33.0115 40.7641 33.0307 41.1423L41.3104 41.1423C41.6358 41.9333 42.0092 42.6966 42.4326 43.429L33.2496 43.429C33.36 44.2028 33.5088 44.9679 33.6893 45.7158L44.0021 45.7158C44.6635 46.5423 45.3979 47.3027 46.1947 47.9996L34.367 47.9996C34.6425 48.7849 34.9631 49.5471 35.3116 50.2854L61.6337 50.2854L61.6337 38.8546L52.3922 38.8546L52.3922 27.4239L77.451 27.4239C76.9614 26.6328 76.4239 25.8686 75.8479 25.1448L61.6453 25.1448L61.6453 22.8562L73.7936 22.8562C72.9507 22.0286 72.0455 21.2626 71.0884 20.5771L61.6453 20.5771L61.6453 18.2856L67.2351 18.2856C64.1258 16.8148 60.6613 15.9998 57.001 15.9998C53.3406 15.9998 49.8761 16.8148 46.7707 18.2856L49.353 18.2856C48.1981 18.9317 47.123 19.6977 46.1361 20.5771L42.9116 20.5771C41.9565 21.2625 41.0512 22.0286 40.2074 22.8562L43.9628 22.8562C43.3906 23.5752 42.8713 24.3394 42.4038 25.1448L38.1569 25.1448C37.579 25.8686 37.0434 26.6328 36.5557 27.4238L41.2941 27.4239C40.9965 28.1698 40.7421 28.9301 40.5434 29.7115L35.3116 29.7115C34.9631 30.4594 34.6425 31.2178 34.367 32.0021L40.1104 32.0021C40.0221 32.7442 39.9722 33.4959 39.9722 34.2629L39.9722 34.286L33.6893 34.286C33.5088 35.0348 33.36 35.796 33.2496 36.5698L40.1172 36.5698C40.2189 37.3503 40.3629 38.1116 40.5549 38.8546L33.0307 38.8546C33.0115 39.2377 33 39.6197 33 40.0009ZM70.0958 32.0021L79.6321 32.0021C79.3537 31.2178 79.0426 30.4594 78.6923 29.7115L67.908 29.7115C68.7 30.4143 69.4325 31.1794 70.0958 32.0021ZM72.7731 36.5698L80.7523 36.5698C80.6448 35.796 80.5008 35.0348 80.3156 34.286L71.6548 34.286C72.08 35.0213 72.4573 35.7845 72.7731 36.5698ZM74.1017 43.429C74.1017 44.2028 74.0518 44.9679 73.9606 45.7158L80.3155 45.7158C80.5008 44.9679 80.6448 44.2028 80.7523 43.429L74.1017 43.429ZM72.7741 50.2854L78.6923 50.2854C79.0426 49.5471 79.3537 48.7849 79.6321 47.9996L73.5238 47.9996C73.327 48.7849 73.0717 49.5471 72.7741 50.2854ZM73.9606 41.1423L80.9741 41.1423C80.9894 40.765 81 40.3781 81 40.0009C81 39.6197 80.9894 39.2386 80.9741 38.8556L73.5238 38.8556C73.7206 39.6005 73.8665 40.3657 73.9606 41.1423Z" fill="white"/>
</g>
<defs>
<clipPath id="clip0_171_569">
<rect width="48" height="48" fill="white" transform="translate(33 16)"/>
</clipPath>
</defs>
</svg>
